<?xml version="1.0" encoding="iso-8859-1"?>
<!-- Generator: Adobe Illustrator 19.0.0, SVG Export Plug-In . SVG Version: 6.00 Build 0)  -->
<svg version="1.1" id="Layer_1" xmlns="http://www.w3.org/2000/svg" xmlns:xlink="http://www.w3.org/1999/xlink" x="0px" y="0px"
	 viewBox="0 0 512 512" style="enable-background:new 0 0 512 512;" xml:space="preserve">
<g>
	<g>
		<path d="M320,179.2c-17.297,0-34.159,3.738-49.997,10.829C276.045,126.302,318.473,89.6,332.8,89.6c7.074,0,12.8-5.726,12.8-12.8
			c0-7.074-5.726-12.8-12.8-12.8c-16.427,0-36.864,13.517-54.153,35.652c-3.78-20.412-12.305-45.44-31.804-64.93
			C215.509,3.379,169.31,0,150.912,0c-3.217,0-5.026,0.111-5.026,0.111c-12.962,0.794-23.433,11.179-24.149,24.149
			c-0.358,6.434-2.398,63.957,34.611,100.966c30.003,30.012,73.37,34.338,93.175,34.654c-2.628,9.95-4.344,20.403-5.197,31.351
			C227.806,183.433,210.159,179.2,192,179.2c-77.636,0-140.8,74.65-140.8,166.4S114.364,512,192,512
			c22.494,0,44.297-6.204,64-18.074C275.703,505.796,297.506,512,320,512c77.636,0,140.8-74.65,140.8-166.4S397.636,179.2,320,179.2
			z M174.438,107.128c-29.986-29.986-27.153-81.459-27.153-81.459s1.306-0.068,3.618-0.068c12.228,0,52.625,2.005,77.841,27.221
			c29.995,29.995,27.153,81.459,27.153,81.459s-1.306,0.068-3.618,0.068C240.051,134.349,199.654,132.344,174.438,107.128z
			 M320,486.4c-23.689,0-45.696-8.755-64-23.74c-18.304,14.985-40.311,23.74-64,23.74c-63.625,0-115.2-63.036-115.2-140.8
			S128.375,204.8,192,204.8c23.689,0,45.696,8.755,64,23.74c18.304-14.985,40.311-23.74,64-23.74c63.625,0,115.2,63.036,115.2,140.8
			S383.625,486.4,320,486.4z"/>
	</g>
</g>
<g>
</g>
<g>
</g>
<g>
</g>
<g>
</g>
<g>
</g>
<g>
</g>
<g>
</g>
<g>
</g>
<g>
</g>
<g>
</g>
<g>
</g>
<g>
</g>
<g>
</g>
<g>
</g>
<g>
</g>
</svg>
