<?xml version="1.0" encoding="iso-8859-1"?>
<!-- Generator: Adobe Illustrator 19.0.0, SVG Export Plug-In . SVG Version: 6.00 Build 0)  -->
<svg version="1.1" id="Layer_1" xmlns="http://www.w3.org/2000/svg" xmlns:xlink="http://www.w3.org/1999/xlink" x="0px" y="0px"
	 viewBox="0 0 511.784 511.784" style="enable-background:new 0 0 511.784 511.784;" xml:space="preserve">
<g transform="translate(1 1)">
	<g>
		<g>
			<path d="M509.078,231.74l-3.413-6.827c-2.843-7.819-10.426-12.659-18.797-12.584c-1.95-0.061-3.949,0.137-5.949,0.638
				c-132.267,32.427-202.24,12.8-237.227-9.387c-34.987-22.187-40.96-49.493-40.96-50.347c-4.267-19.627-23.893-40.107-24.747-40.96
				c-12.425-13.079-11.319-35.162-10.124-44.776c0.256-0.457,0.504-0.896,0.737-1.304c1.707-3.413,1.707-8.533-1.707-11.093
				c-15.36-14.507-41.813-4.267-54.613,0.853l-1.288,0.322c-8.31-3.689-16.782-4.512-22.605-3.735c-4.267,0-7.68,3.413-7.68,7.68
				c-0.853,27.307-8.533,44.373-12.8,51.2c-7.68-0.853-16.213,0.853-23.893,5.12c-16.213,7.68-29.013,23.893-34.133,46.08
				c-21.333,86.187-11.093,156.16,29.013,208.213c26.453,34.133,66.56,59.733,117.76,75.947
				c21.902,6.77,42.314,10.565,58.641,12.688c0.154,0.029,0.309,0.043,0.464,0.06c0.967,0.124,1.921,0.244,2.858,0.357
				c16.675,2.248,27.854,2.255,32.757,2.255c8.533,0,16.213-5.973,19.627-14.507l2.56-7.68c0.551-2.021,0.808-4.081,0.806-6.122
				c0.204-5.599-1.682-11.099-5.63-15.298c23.642-0.59,45.302-4.397,62.296-8.48c0.185,0.019,0.37,0.033,0.555,0.033
				c0.685,0,1.355-0.008,1.156-0.45c12.163-2.989,21.805-6.066,27.857-8.083c1.6-0.48,3.11-1.17,4.508-2.031
				c6.056-3.729,9.999-10.663,9.999-17.596v-7.68c0-2.23-0.342-4.413-0.954-6.491c13.649-4.139,26.026-9.085,36.731-13.989
				c0.021,0,0.042,0,0.062,0c0.937-0.441,1.858-0.878,2.766-1.311c3.738-1.756,7.252-3.495,10.53-5.18
				c8.106-4.115,14.574-7.727,19.131-10.575c7.68-4.267,11.093-13.653,9.387-22.187l-1.707-7.68
				c-0.584-3.504-1.982-6.595-3.96-9.163c12.748-7.611,23.846-15.446,33.059-22.579c1.582-0.325,2.692-1.121,3.328-2.391
				c10.24-7.68,17.067-13.653,20.48-17.067C510.784,249.66,512.491,240.274,509.078,231.74z M492.011,242.834
				c-2.56,2.56-5.973,5.973-11.093,10.24l-10.148-20.295c1.172-0.264,2.344-0.528,3.526-0.8c3.914-0.688,7.828-1.494,11.741-2.798
				c1.707,0,3.413,0.853,4.267,2.56l3.413,6.827C493.718,240.274,493.718,241.98,492.011,242.834z M166.891,123.367
				c5.12,5.12,17.92,20.48,20.48,32.427c0.853,4.267,8.533,35.84,48.64,61.44c34.51,22.745,100.025,42.602,217.736,19.162
				l13.828,28.257c-10.946,8.168-24.306,17.062-39.564,25.115c-0.001,0-0.002,0-0.003,0c-9.676,0-19.435,0-30.717,0
				c-0.31,0-0.621,0.027-0.93,0.074c-113.831-2.451-169.724-33.268-197.044-59.808c-23.893-23.893-29.867-48.64-29.867-58.027
				c0-0.64-0.014-1.283-0.042-1.927c-0.851-19.972-14.465-41.62-14.465-42.447c-4.232-6.701-3.794-16.318-1.348-26.138
				C156.12,109.634,159.562,117.666,166.891,123.367z M433.984,321.34c-5.092,3.055-12.352,7.192-21.39,11.656l-5.064-26.163
				c0.507,0,1.002-0.001,1.502-0.001c0.069,0,0.136,0.001,0.205,0.001c5.973,0,12.8,0,17.92,0c2.166,0,3.114-0.006,4.387-0.523
				c1.51,0.575,2.44,1.826,2.44,3.083l0.853,8.533c0,1.171-0.014,2.334-0.564,3.23C434.177,321.218,434.094,321.286,433.984,321.34z
				 M148.971,63.634c-6.266,11.279-15.739,32.677-14.932,52.037c0.194,7.28,1.802,14.319,5.545,20.496
				c4.267,5.973,12.8,23.04,12.8,35.84c0,3.413,0.853,36.693,34.987,69.973c28.346,28.346,86.677,61.299,202.698,64.582
				l6.737,33.683c-10.654,4.53-22.838,8.992-36.208,12.669c-0.853,0-0.853,0-1.707,0c-134.827-24.747-189.44-71.68-212.48-106.667
				c-22.187-34.987-16.213-61.44-16.213-62.293c4.267-19.627-5.12-46.933-5.12-47.787c-0.853-1.707-1.707-5.973-1.707-6.827
				c-0.498-6.978,1.629-15.986,4.5-23.979c2.089-5,4.676-9.69,7.446-13.568c1.568-3.921,1.687-7.838-0.951-10.434
				c-2.029-5.418-4.763-9.917-7.926-13.628C133.988,65.23,142.294,62.799,148.971,63.634z M237.81,399.943
				c-85.442-50.624-122.549-98.3-138.028-134.263c-2.858-6.953-4.888-13.455-6.278-19.433c-9.387-38.4,3.413-60.587,4.267-61.44
				c10.24-17.067,9.387-46.08,9.387-46.933s0-2.56,0-3.413c0,2.56,0.853,5.12,1.707,7.68c1.362,5.449,4.896,19.052,4.965,30.396
				c-0.025,2.555-0.234,4.98-0.699,7.151c-0.3,1.2-1.228,5.888-1.2,13.192c-0.085,13.374,3.015,36.187,19.973,62.755
				c22.754,34.523,73.65,79.865,191.147,107.507v31.246C300.174,399.402,269.972,403.43,237.81,399.943z M358.038,373.394v7.68
				c0,1.707-0.853,2.56-2.56,3.413c-3.413,1.707-8.533,3.413-15.36,5.12v-22.68c5.012,1.048,10.122,2.07,15.36,3.054
				c0.539,0.269,1.071,0.63,1.556,1.043C357.636,371.75,358.038,372.571,358.038,373.394z M51.691,359.74
				c-36.693-47.787-45.227-112.64-25.6-193.707c2.56-9.387,8.533-27.307,24.747-34.133c5.12-2.56,9.387-3.413,14.507-3.413
				c1.707,0,3.413,0,5.12,0c3.413,0.853,6.827,0,8.533-3.413c0,0,14.507-18.773,17.92-55.467c5.973,1.707,14.507,5.12,19.627,14.507
				c-9.387,8.533-28.16,28.16-27.307,52.053c0,6.827-0.853,27.307-7.68,38.4c-1.707,3.413-17.92,31.573-5.12,77.653
				c4.984,18.156,15.025,40.175,34.136,64.629c22.319,29.019,57.415,61.721,112.411,95.45l-11.083,29.166
				C167.465,434.686,95.186,415.254,51.691,359.74z M250.518,445.074c-2.56,0-10.24-0.853-21.333-1.707l8.533-23.04
				c1.823,1.042,3.644,2.001,5.443,2.932c3.792,2.149,7.665,4.3,11.624,6.455c1.707,1.707,2.56,3.413,1.707,5.12l-2.56,7.68
				C253.078,444.22,251.371,445.074,250.518,445.074z"/>
			<path d="M67.051,300.007c0-5.12-3.413-8.533-8.533-8.533s-8.533,3.413-8.533,8.533s3.413,8.533,8.533,8.533
				S67.051,305.127,67.051,300.007z"/>
			<path d="M58.518,163.474c5.12,0,8.533-3.413,8.533-8.533s-3.413-8.533-8.533-8.533s-8.533,3.413-8.533,8.533
				S53.398,163.474,58.518,163.474z"/>
			<path d="M49.984,197.607c0-5.12-3.413-8.533-8.533-8.533s-8.533,3.413-8.533,8.533s3.413,8.533,8.533,8.533
				S49.984,202.727,49.984,197.607z"/>
			<path d="M58.518,231.74c0-5.12-3.413-8.533-8.533-8.533s-8.533,3.413-8.533,8.533c0,5.12,3.413,8.533,8.533,8.533
				S58.518,236.86,58.518,231.74z"/>
			<path d="M67.051,325.607c-5.12,0-8.533,3.413-8.533,8.533s3.413,8.533,8.533,8.533s8.533-3.413,8.533-8.533
				S72.171,325.607,67.051,325.607z"/>
			<path d="M101.184,334.14c-5.12,0-8.533,3.413-8.533,8.533c0,5.12,3.413,8.533,8.533,8.533s8.533-3.413,8.533-8.533
				C109.718,337.554,106.304,334.14,101.184,334.14z"/>
			<path d="M101.184,368.274c-5.12,0-8.533,3.413-8.533,8.533s3.413,8.533,8.533,8.533s8.533-3.413,8.533-8.533
				S106.304,368.274,101.184,368.274z"/>
		</g>
	</g>
</g>
<g>
</g>
<g>
</g>
<g>
</g>
<g>
</g>
<g>
</g>
<g>
</g>
<g>
</g>
<g>
</g>
<g>
</g>
<g>
</g>
<g>
</g>
<g>
</g>
<g>
</g>
<g>
</g>
<g>
</g>
</svg>
