<?xml version="1.0" encoding="iso-8859-1"?>
<!-- Generator: Adobe Illustrator 19.0.0, SVG Export Plug-In . SVG Version: 6.00 Build 0)  -->
<svg version="1.1" id="Capa_1" xmlns="http://www.w3.org/2000/svg" xmlns:xlink="http://www.w3.org/1999/xlink" x="0px" y="0px"
	 viewBox="0 0 490 490" style="enable-background:new 0 0 490 490;" xml:space="preserve">
<path d="M457.625,233.554c-1.979-2.387-4.921-3.772-8.026-3.772c-23.173,0-45.323-8.647-62.369-24.343l-51.559-47.492
	c-10.276-9.467-23.631-14.679-37.602-14.679h-16.76v-31.942c0-20.964-17.055-38.021-38.015-38.021
	c-20.964,0-38.019,17.056-38.019,38.021v31.942h-156.6c-2.269,0-4.479,0.743-6.291,2.113c-2.509,1.898-61.223,48.372-36.183,206.738
	c0.805,5.064,5.166,8.794,10.297,8.794H57.68c2.102,31.108,28.068,55.783,59.7,55.783c31.632,0,57.598-24.675,59.701-55.783h116.598
	c2.102,31.108,28.069,55.783,59.701,55.783s57.598-24.675,59.701-55.783h58.263c3.715,0,7.151-1.979,9.013-5.191
	C481.679,353.445,512.075,299.241,457.625,233.554z M226.122,111.325c0-9.467,7.705-17.173,17.172-17.173
	c9.467,0,17.168,7.706,17.168,17.173v31.942h-34.34V111.325z M117.38,395.848c-21.508,0-39.006-17.499-39.006-39.007
	c0-21.509,17.498-39.008,39.006-39.008c21.509,0,39.007,17.499,39.007,39.008C156.388,378.35,138.889,395.848,117.38,395.848z
	 M353.379,395.848c-21.509,0-39.007-17.499-39.007-39.007c0-1.976,0.143-3.909,0.427-5.807c2.814-18.93,19.401-33.201,38.58-33.201
	c21.508,0,39.007,17.499,39.007,39.008C392.386,378.35,374.887,395.848,353.379,395.848z M464.649,340.065h-53.826
	c-7.274-24.86-30.267-43.079-57.444-43.079c-26.695,0-50.113,18.033-57.463,43.079H174.825
	c-7.274-24.86-30.266-43.079-57.444-43.079c-27.178,0-50.17,18.219-57.443,43.079H25.476
	c-17.02-120.147,18.013-166.117,27.307-175.95h245.286c8.723,0,17.06,3.252,23.474,9.161l51.563,47.492
	c19.657,18.109,44.846,28.563,71.413,29.749C477.434,292.685,469.474,327.325,464.649,340.065z"/>
<path d="M430.955,254.314l14.211,14.209l-14.739,14.74l-14.211-14.211L430.955,254.314z"/>
<path d="M190.097,184.326H73.971c-4.714,0-8.841,3.16-10.062,7.71l-20.847,77.358c-1.785,6.273,3.141,13.137,10.062,13.137h136.973
	c5.757,0,10.424-4.668,10.424-10.423v-77.358C200.52,188.994,195.854,184.326,190.097,184.326z M179.673,261.684H66.728
	l15.228-56.511h97.716V261.684z"/>
<path d="M354.783,233.141l-52.835-46.234c-1.903-1.664-4.341-2.58-6.866-2.58H239.99c-5.756,0-10.424,4.667-10.424,10.423v77.358
	c0,5.756,4.668,10.423,10.424,10.423h107.926c5.757,0,10.424-4.668,10.424-10.423v-31.124
	C358.341,237.977,357.043,235.121,354.783,233.141z M337.493,261.684h-87.079v-56.511h40.748l46.331,40.54V261.684z"/>
<g>
</g>
<g>
</g>
<g>
</g>
<g>
</g>
<g>
</g>
<g>
</g>
<g>
</g>
<g>
</g>
<g>
</g>
<g>
</g>
<g>
</g>
<g>
</g>
<g>
</g>
<g>
</g>
<g>
</g>
</svg>
