<?xml version="1.0" encoding="iso-8859-1"?>
<!-- Generator: Adobe Illustrator 19.0.0, SVG Export Plug-In . SVG Version: 6.00 Build 0)  -->
<svg version="1.1" id="Layer_1" xmlns="http://www.w3.org/2000/svg" xmlns:xlink="http://www.w3.org/1999/xlink" x="0px" y="0px"
	 viewBox="0 0 330 330" style="enable-background:new 0 0 330 330;" xml:space="preserve">
<g id="XMLID_484_">
	<path id="XMLID_486_" d="M315,60.001h-55V15c0-8.284-6.716-15-15-15H85c-8.284,0-15,6.716-15,15v45.001H15c-8.284,0-15,6.716-15,15
		V315c0,8.284,6.716,15,15,15h300c8.284,0,15-6.716,15-15V75.001C330,66.717,323.284,60.001,315,60.001z M100,30h130v30.001H100V30z
		 M300,300H30V90.001h270V300z"/>
	<polygon id="XMLID_490_" points="185,135 144.999,135 144.999,175.001 105,175.001 105,215.001 144.999,215.001 144.999,255 
		185,255 185,215.001 225,215.001 225,175.001 185,175.001 	"/>
</g>
<g>
</g>
<g>
</g>
<g>
</g>
<g>
</g>
<g>
</g>
<g>
</g>
<g>
</g>
<g>
</g>
<g>
</g>
<g>
</g>
<g>
</g>
<g>
</g>
<g>
</g>
<g>
</g>
<g>
</g>
</svg>
