<?xml version="1.0" encoding="iso-8859-1"?>
<!-- Generator: Adobe Illustrator 19.0.0, SVG Export Plug-In . SVG Version: 6.00 Build 0)  -->
<svg version="1.1" id="Capa_1" xmlns="http://www.w3.org/2000/svg" xmlns:xlink="http://www.w3.org/1999/xlink" x="0px" y="0px"
	 viewBox="0 0 490 490" style="enable-background:new 0 0 490 490;" xml:space="preserve">
<path d="M370.397,265.442l-48.15-132.123h-90.233V54.229h-61.278v79.091h-32.624V54.229H76.832v79.091H55.045L30.97,265.442H0
	l25.462,170.33h392.499L490,265.442H370.397z M191.294,74.787h20.162v58.533h-20.162V74.787z M97.391,74.787h20.162v58.533H97.391
	V74.787z M72.2,153.878h235.663l40.655,111.564H51.867L72.2,153.878z M404.34,415.213H43.18L23.861,286.001h435.122L404.34,415.213z
	"/>
<rect x="79.734" y="310.925" width="18.429" height="20.558"/>
<rect x="139.175" y="310.925" width="18.429" height="20.558"/>
<rect x="198.617" y="310.925" width="18.425" height="20.558"/>
<rect x="258.058" y="310.925" width="18.425" height="20.558"/>
<rect x="317.499" y="310.925" width="18.425" height="20.558"/>
<rect x="87.111" y="182.005" width="26.18" height="20.558"/>
<rect x="154.84" y="182.005" width="26.175" height="20.558"/>
<rect x="222.568" y="182.005" width="26.174" height="20.558"/>
<g>
</g>
<g>
</g>
<g>
</g>
<g>
</g>
<g>
</g>
<g>
</g>
<g>
</g>
<g>
</g>
<g>
</g>
<g>
</g>
<g>
</g>
<g>
</g>
<g>
</g>
<g>
</g>
<g>
</g>
</svg>
